<svg width="204" height="116" viewBox="0 0 204 116" fill="none" xmlns="http://www.w3.org/2000/svg"><path d="M34.7193 27.4632C34.6529 28.1799 34.6198 28.9292 34.6529 29.6785 34.8189 33.4575 36.1466 36.7804 38.6028 39.6798c2.8546 3.3229 6.4725 5.3427 10.8539 5.9616C54.9998 46.4233 59.9123 44.9247 64.0613 41.2109 66.8495 38.735 68.6087 35.6402 69.2725 31.9915 70.1687 27.2352 69.1066 22.9024 66.1525 19.0582 63.3643 15.4096 59.6136 13.2595 55.0662 12.445 54.1036 12.2821 53.1079 12.217 52.1453 12.1844c-1.892.0-3.7839.0-5.6427.0976999999999997C43.5817 12.4124 40.6939 12.7382 37.9058 13.6178c-4.4146 1.4008-7.6342 4.2351-10.0241 8.0466-1.5268 2.4434-2.4562 5.1473-3.0869 7.9489-1.0289 4.4957-1.9915 8.9588-2.8877 13.4871C20.9777 47.6938 20.0815 52.3198 19.2849 56.9458 18.953 58.8679 18.6211 60.8225 18.3555 62.7772 17.924 65.9372 18.9862 68.6086 21.2101 70.889c1.0289 1.0425 2.1906 1.8895 3.452 2.6062C24.7616 73.5603 24.8944 73.5929 24.994 73.7558 24.1642 73.7232 23.4339 73.5929 22.6705 73.43 19.5172 72.7785 16.5963 71.6383 14.0073 69.6836 10.6881 67.11 8.76293 63.7545 8.13228 59.6172 7.66759 56.4572 8.09909 53.3623 8.79613 50.3c1.32767-5.8965 2.58897-11.793 3.91667-17.6895 1.1286-5.0821 2.2571-10.1642 3.3524-15.2463C16.8619 13.683 17.6917 10.0017 18.4883 6.32046 18.5547 6.02726 18.6542 5.92953 18.9862 5.92953 30.3711 5.92953 41.7561 5.89695 53.1079 5.96211 59.2485 5.99469 64.692 8.04707 69.3721 11.9564c3.9499 3.2903 6.6717 7.395 7.8334 12.3794C78.7655 31.0793 77.3383 37.269 73.1892 42.8072 69.2061 48.0522 63.829 51.2122 57.2901 52.4176 55.896 52.6782 54.4356 52.7759 53.0083 52.7759c-4.8129.0-9.6258.0-14.4055.0C38.2377 52.7759 38.1049 52.8411 38.0054 53.232c-.7303 3.9744-1.4937 7.9489-2.2571 11.9233C35.2172 68.0222 34.6529 70.889 34.1219 73.7558 34.0555 74.0164 33.9891 74.1141 33.6904 74.1141 31.1677 74.049 28.6451 73.9838 26.1225 73.8861 25.8238 73.8861 25.7574 73.7884 25.8238 73.4952 26.3549 70.6609 26.9191 67.8593 27.4502 65.025 28.1472 61.4089 28.8111 57.8254 29.4749 54.2093 30.1056 50.919 30.7362 47.6287 31.3337 44.3058 32.1303 40.0055 32.9601 35.7053 33.7567 31.3725 34.0555 30.0368 34.321 28.7663 34.7193 27.4632z" fill="#5288bd"/><path d="M67.8452 28.2123C67.8452 36.0961 62.8 42.1555 55.5973 43.7844c-7.2028 1.5963-14.7706-2.0198-17.7911-8.5679C34.4206 27.9191 37.5406 19.2535 44.843 15.6049c6.2733-3.0949 13.7416-1.9547 18.5877 2.8994 2.9209 2.8994 4.3813 6.4177 4.4145 9.708z" fill="#102b72"/><path d="M153.913 61.9951C154.842 63.4285 155.772 64.8619 156.701 66.3279 157.332 65.6764 157.763 64.9271 158.095 64.1452 158.294 63.6892 158.427 63.2331 158.593 62.777 158.659 62.6141 158.692 62.5489 158.892 62.5489 159.489 62.5489 160.087 62.5489 160.684 62.6467 161.779 62.8747 162.144 63.4611 161.912 64.5362 161.481 66.3605 160.385 67.7613 159.024 68.9667 158.759 69.1947 158.759 69.3251 158.925 69.5857 159.788 70.8562 160.618 72.1593 161.447 73.4624 161.514 73.5927 161.58 73.6904 161.68 73.8859 160.253 73.8533 158.858 73.9836 157.498 73.7882 156.635 73.6904 156.037 73.1366 155.606 72.4199 155.34 71.9638 155.307 71.9638 154.875 72.2244 153.149 73.3321 151.291 73.9836 149.199 74.0162 146.511 74.0814 143.988 72.5176 143.258 70.2372 142.561 67.9568 143.092 65.937 144.752 64.1778 145.615 63.2656 146.71 62.5815 147.805 61.93 148.336 61.6042 148.37 61.6042 148.005 61.083 146.976 59.5844 146.776 57.9881 147.208 56.2615 147.573 54.8932 148.37 53.8182 149.664 53.1341 151.689 52.0916 153.846 51.7984 156.037 52.5151 157.531 53.0038 158.593 53.9811 158.792 55.5774 158.991 57.0434 158.493 58.3139 157.498 59.4215 156.635 60.3663 155.572 60.9526 154.477 61.5716 154.344 61.7671 154.145 61.8648 153.913 61.9951zM150.062 70.4001C151.091 70.4001 152.187 70.0092 153.149 69.325 153.315 69.1947 153.348 69.1296 153.216 68.9667 152.95 68.6083 152.718 68.2174 152.485 67.8591 151.722 66.6863 150.959 65.5135 150.195 64.3407 150.129 64.2104 150.062 64.0149 149.83 64.1778 148.967 64.7316 148.104 65.2854 147.573 66.165 147.108 66.9143 146.81 67.6962 147.009 68.5758 147.307 69.6834 148.536 70.4327 150.062 70.4001zM155.108 56.685C155.074 56.2289 154.909 55.838 154.477 55.6099 153.78 55.219 152.718 55.3168 152.054 55.8706 151.357 56.4244 151.091 57.3365 151.357 58.1184 151.523 58.5745 151.822 58.998 152.087 59.4215 152.154 59.5518 152.253 59.5844 152.386 59.5192 153.05 59.1609 153.747 58.8351 154.311 58.3139 154.743 57.8578 155.074 57.3366 155.108 56.685z" fill="#112c72"/><path d="M83.5449 52.2543C85.1049 52.2543 86.665 52.1891 88.1918 52.2543 90.98 52.352 93.237 54.5021 93.5358 57.2386 93.9341 61.1479 91.677 64.3405 87.6939 65.4481 86.6982 65.7413 85.6692 65.8716 84.6402 65.8716 83.3125 65.8716 81.9517 65.8716 80.624 65.8716 80.3916 65.8716 80.292 65.9368 80.2257 66.1648 79.6946 68.6407 79.1303 71.084 78.566 73.5599 78.4997 73.8205 78.4001 73.9183 78.1345 73.9183 76.4085 73.9183 75.1804 73.169 74.6826 71.7681 74.4502 71.084 74.417 70.3999 74.583 69.6832 75.8443 63.9821 77.1056 58.2485 78.3669 52.5475 78.4333 52.2543 78.566 52.2217 78.8316 52.2217 80.3916 52.2217 81.9848 52.2217 83.5449 52.2543c0-.0326000000000022.0-.0326000000000022.0.0zM83.6113 62.0601V62.0275C84.3083 62.0275 85.0053 62.0601 85.6692 62.0275 87.7935 61.9298 89.1876 60.3986 88.9884 58.3137 88.8557 56.9454 87.9595 55.9355 86.4326 55.9681 85.3705 56.0007 84.3083 55.9681 83.2462 55.9681 82.4495 55.9681 82.4163 55.9681 82.2836 56.7499 81.9185 58.4114 81.5865 60.0728 81.2214 61.7017 81.155 61.9623 81.1882 62.0601 81.5202 62.0601 82.2172 62.0275 82.9142 62.0601 83.6113 62.0601z" fill="#112c72"/><path d="M89.5199 106.105C88.8892 106.105 88.2585 106.105 87.5947 106.105 87.3292 106.105 87.2628 106.007 87.2628 105.812 87.13 104.737 86.9641 103.661 86.8645 102.586 86.8313 102.293 86.7317 102.228 86.433 102.228 84.0099 102.228 81.5869 102.228 79.1307 102.228 78.8651 102.228 78.7655 102.326 78.6328 102.521 77.803 103.89 76.9732 105.258 76.1434 106.659 76.0106 106.887 75.911 106.919 75.6455 106.789 75.1476 106.496 74.5833 106.268 74.185 105.812 73.322 104.899 73.2556 103.596 74.0191 102.293 75.4795 99.7848 76.9732 97.3089 78.4336 94.8004 80.392 91.4449 82.3835 88.0895 84.3419 84.734 84.4746 84.5059 84.6074 84.4082 84.9061 84.4082 85.5368 84.4082 86.1674 84.4082 86.7981 84.6037 88.3581 85.1249 89.2211 86.2 89.4535 87.7963 89.9514 91.5101 90.416 95.1913 90.8807 98.9052 91.1795 101.218 91.4782 103.499 91.7769 105.812 91.8101 106.04 91.7437 106.105 91.5114 106.072 90.8475 106.105 90.1837 106.105 89.5199 106.105zM85.3376 89.7509C85.2712 89.8486 85.238 89.8486 85.238 89.8812 83.7112 92.7155 82.1844 95.5823 80.6243 98.4165 80.4915 98.6771 80.5247 98.7423 80.8235 98.7423c1.75920000000001.0 3.5184.0 5.2444.0C86.3666 98.7423 86.433 98.6771 86.3998 98.3839 86.1342 96.3316 85.9019 94.2792 85.6364 92.2268 85.5368 91.4124 85.4372 90.6305 85.3376 89.7509z" fill="#112c72"/><path d="M103.162 72.4521C102.265 73.234 101.336 73.7552 100.207 73.9507 98.8134 74.1787 97.4525 74.1136 96.1912 73.3969 94.8303 72.5824 94.1665 71.3119 94.1333 69.8133 94.0337 66.9465 94.5648 64.1449 95.8593 61.5713c1.2281-2.4759 3.3192-3.7139 6.1407-3.7139C104.39 57.8574 106.78 58.118 109.169 58.3135 109.236 58.3135 109.269 58.3135 109.335 58.3461 109.667 58.3787 110.099 58.2484 110.265 58.509 110.398 58.7044 110.165 59.0954 110.099 59.3886 109.037 64.0797 107.974 68.7709 106.912 73.462 106.846 73.7878 106.713 73.9507 106.348 73.9181 105.751 73.8855 105.153 73.9181 104.556 73.8855 103.825 73.853 103.361 73.4294 103.228 72.7127 103.228 72.615 103.195 72.5499 103.162 72.4521zM103.195 60.9197C102.962 60.9197 102.796 60.9197 102.664 60.9197 101.27 60.9523 100.307 61.5713 99.8092 62.8743 99.6764 63.2653 99.5105 63.6236 99.4109 64.0146 98.9794 65.448 98.5811 66.914 98.5811 68.4451 98.5811 69.7808 99.2117 70.3997 100.573 70.3997 100.739 70.3997 100.905 70.3997 101.104 70.3997 101.867 70.3672 102.465 70.0414 102.929 69.4224 103.261 68.9338 103.494 68.3799 103.693 67.8261 104.39 65.7412 104.722 63.5911 105.22 61.4735 105.286 61.1803 105.186 61.1152 104.921 61.0826 104.29 60.9849 103.726 60.9197 103.195 60.9197z" fill="#112c72"/><path d="M128.952 104.704C128.355 105.225 127.691 105.681 126.927 105.942 125.069 106.528 123.243 106.561 121.617 105.388 120.422 104.541 119.924 103.303 119.924 101.935 119.891 99.1003 120.422 96.3963 121.683 93.8553 122.911 91.3794 124.969 90.1415 127.79 90.1089 130.114 90.1089 132.404 90.3369 134.694 90.565 135.059 90.5975 135.391 90.6627 135.757 90.6627 136.055 90.6627 136.055 90.7604 135.989 91.0211 135.524 93.0734 135.059 95.1584 134.595 97.2434 133.964 100.078 133.333 102.944 132.703 105.779 132.636 106.104 132.504 106.202 132.172 106.202 131.674 106.17 131.176 106.202 130.711 106.202 129.682 106.202 129.284 105.876 129.019 104.899 129.019 104.769 128.985 104.736 128.952 104.704zm-4.58-4.366C124.372 100.599 124.372 100.892 124.438 101.185 124.538 101.935 125.002 102.488 125.699 102.586 127.425 102.814 128.487 102.521 129.184 100.762 129.218 100.664 129.284 100.534 129.317 100.436 130.014 98.1881 130.512 95.9077 131.043 93.6273 131.076 93.4318 131.043 93.3992 130.844 93.3341 129.981 93.1712 129.151 93.106 128.288 93.1712 126.961 93.2689 126.064 93.9856 125.6 95.2235 124.903 96.8524 124.538 98.5465 124.372 100.338z" fill="#112c72"/><path d="M180.4 68.7384C181.031 69.6505 181.662 70.5953 182.292 71.5074 182.425 71.7029 182.292 71.7681 182.193 71.8658 181.164 72.778 179.936 73.3969 178.608 73.7227 176.683 74.2114 174.724 74.3743 172.766 73.7553 169.945 72.8757 168.351 70.6279 168.484 67.7285 168.551 65.9041 169.015 64.1449 169.414 62.3858 169.746 60.822 170.077 59.2909 170.808 57.8249 172.335 54.6323 174.857 52.808 178.475 52.4496 180.666 52.2216 182.823 52.5148 184.948 52.9383 185.18 52.9709 185.246 53.036 185.147 53.2967 184.848 54.1111 184.583 54.9255 184.284 55.7074 184.018 56.4241 183.686 56.6521 182.89 56.587 182.126 56.5218 181.363 56.3589 180.599 56.2612 178.973 56.0657 177.446 56.2286 176.185 57.4014 175.289 58.2484 174.824 59.3235 174.459 60.4311 173.828 62.5812 173.297 64.7313 173.065 66.9466 172.799 69.3248 174.492 70.8233 176.915 70.3998 178.077 70.2044 179.073 69.6505 180.035 68.9664 180.168 68.9338 180.268 68.8361 180.4 68.7384z" fill="#112c72"/><path d="M189.926 74.0158C188.897 73.9832 188.068 73.9506 187.238 73.7226 185.246 73.1688 184.051 71.8657 183.819 69.911 183.388 66.1972 184.35 62.8091 186.806 59.9097 188.034 58.4437 189.76 57.8574 191.652 57.7596 192.648 57.6945 193.644 57.727 194.607 57.9551 196.83 58.5089 198.191 59.9423 198.424 62.1902 198.656 64.3729 198.191 66.4904 197.494 68.5428 197.096 69.7807 196.465 70.8558 195.569 71.8331 194.441 73.071 193.046 73.69 191.42 73.9181 190.889 73.9832 190.325 73.9832 189.926 74.0158zM194.241 63.2326C194.241 63.1675 194.275 63.1349 194.275 63.0698 194.341 61.7341 193.677 61.05 192.316 61.0174 190.856 60.9848 189.926 61.7015 189.329 62.9394 188.864 63.9168 188.599 64.9592 188.333 66.0343 188.134 66.8162 187.935 67.598 187.968 68.4125 188.001 69.4549 188.466 70.1065 189.429 70.3345 190.657 70.6277 192.25 70.2694 192.98 68.7708 193.777 67.0116 194.109 65.1547 194.241 63.2326z" fill="#112c72"/><path d="M121.451 72.4197C121.285 72.5174 121.185 72.6151 121.052 72.7129 119.526 73.8531 117.766 74.1789 115.908 73.8857 113.684 73.5273 112.29 71.8333 112.257 69.5529 112.223 68.0869 112.588 66.6535 112.887 65.2526 113.385 62.9396 113.883 60.6592 114.381 58.3462 114.447 58.0204 114.58 57.8901 114.912 57.9227 115.509 57.9553 116.107 57.9553 116.671 58.2159 117.833 58.7372 118.497 59.9099 118.231 61.1153 117.766 63.3632 117.302 65.611 116.804 67.8263 116.737 68.152 116.671 68.4778 116.671 68.8036 116.704 69.8135 117.269 70.3999 118.264 70.465 120.223 70.5953 121.451 69.6506 121.915 67.6308 122.612 64.5034 123.31 61.3759 123.973 58.2485 124.04 57.9879 124.139 57.8901 124.405 57.8901 124.87 57.9227 125.367 57.9227 125.832 58.053 127.226 58.5091 128.023 59.7796 127.691 61.213 126.795 65.3178 125.899 69.4551 125.002 73.5599 124.969 73.7879 124.87 73.8857 124.604 73.8857 124.206 73.8531 123.841 73.8857 123.442 73.8857 122.281 73.8857 121.882 73.625 121.451 72.4197z" fill="#112c72"/><path d="M100.606 106.431C98.382 106.463 96.4568 105.975 94.6976 104.835 94.4653 104.672 94.3989 104.574 94.5648 104.313 94.93 103.792 95.2287 103.206 95.627 102.717 96.0917 102.131 96.656 101.935 97.3862 102.196 98.2492 102.489 99.1454 102.815 100.042 102.945 101.004 103.108 101.934 103.075 102.83 102.75 103.394 102.554 103.792 102.196 103.892 101.609 104.025 100.958 103.792 100.502 103.162 100.274 102.465 100.013 101.701 99.948 101.004 99.7851 100.241 99.6222 99.5105 99.4267 98.8135 99.1335 97.1207 98.3843 96.3572 97.016 96.5564 95.1917 96.8219 92.9438 98.1828 91.5756 100.241 90.7937 102.498 89.9467 104.788 89.9793 107.112 90.5982 107.643 90.7286 108.174 90.924 108.705 91.1195 108.937 91.2172 109.037 91.2824 108.937 91.543 108.738 92.0317 108.605 92.5203 108.406 93.009 108.008 94.084 107.443 94.3772 106.315 94.0515 105.352 93.7583 104.39 93.5302 103.394 93.4976 102.763 93.4651 102.166 93.5302 101.568 93.7908 101.436 93.856 101.336 93.8886 101.237 93.9863 100.772 94.3121 100.573 94.7356 100.639 95.2894S101.104 96.1038 101.602 96.2016C102.498 96.397 103.394 96.5599 104.29 96.7554 104.755 96.8531 105.186 96.9508 105.618 97.1137 107.443 97.7979 108.373 99.3616 108.174 101.284 107.875 103.825 106.249 105.193 103.958 105.975 102.83 106.333 101.668 106.463 100.606 106.431z" fill="#112c72"/><path d="M130.014 70.8558C130.048 70.1717 130.313 69.3246 130.512 68.4451 131.707 63.0372 132.902 57.6293 134.064 52.1889 134.13 51.9283 134.23 51.8306 134.495 51.8306 135.226 51.8631 135.923 51.9609 136.553 52.3192 137.582 52.9382 138.047 54.111 137.781 55.3489 136.454 61.3757 135.126 67.4026 133.832 73.4294 133.765 73.69 133.666 73.8203 133.367 73.7878 132.769 73.7226 132.172 73.6574 131.641 73.4294 130.545 73.0059 130.014 72.224 130.014 70.8558z" fill="#112c72"/><path d="M113.982 106.039c-1.527.0-2.655-.716000000000008-3.053-1.922C110.763 103.563 110.763 102.977 110.895 102.423c.863-3.9417 1.726-7.9161 2.589-11.858C113.551 90.337 113.617 90.2393 113.849 90.2393 114.347 90.2393 114.812 90.2393 115.31 90.4021 116.77 90.8582 117.6 92.1287 117.301 93.5947 116.671 96.6244 115.974 99.6867 115.343 102.716 115.144 103.694 114.912 104.638 114.712 105.616 114.646 105.942 114.546 106.104 114.181 106.039 114.115 106.007 114.049 106.039 113.982 106.039z" fill="#112c72"/><path d="M116.14 88.1874c-.564000000000007.0-1.128.0-1.693.0C114.215 88.1874 114.182 88.1548 114.215 87.9268 114.447 86.8191 114.68 85.7115 114.879 84.6039 114.912 84.4084 114.978 84.3433 115.178 84.3433c1.194.0 2.35600000000001.0 3.551.0C118.961 84.3433 118.995 84.441 118.928 84.6365 118.663 85.7441 118.43 86.8517 118.165 87.9268 118.132 88.1548 118.032 88.1874 117.8 88.1874c-.530999999999992.0-1.096.0-1.66.0z" fill="#132d73"/></svg>